<?xml version="1.0" encoding="UTF-8"?>
<svg id="Ebene_2" data-name="Ebene 2" xmlns="http://www.w3.org/2000/svg" viewBox="0 0 802.08 887.01">
  <defs>
    <style>
      .cls-1 {
        fill: #ff3232;
        stroke: #2d479a;
        stroke-width: 20px;
      }

      .cls-1, .cls-2, .cls-3 {
        stroke-linejoin: round;
      }

      .cls-4 {
        fill: #000;
      }

      .cls-4, .cls-2, .cls-3, .cls-5, .cls-6, .cls-7, .cls-8 {
        stroke: #fff;
      }

      .cls-4, .cls-5, .cls-6, .cls-7, .cls-8 {
        stroke-width: 8px;
      }

      .cls-4, .cls-7, .cls-8 {
        stroke-miterlimit: 10;
      }

      .cls-2, .cls-3 {
        stroke-width: 5px;
      }

      .cls-2, .cls-5, .cls-8 {
        fill: none;
      }

      .cls-3, .cls-9 {
        fill: #fff;
      }

      .cls-5, .cls-6 {
        stroke-linejoin: bevel;
      }

      .cls-6, .cls-7 {
        fill: #2d479a;
      }

      .cls-9 {
        stroke-width: 0px;
      }
    </style>
  </defs>
  <g id="Ebene_2-2" data-name="Ebene 2">
    <path class="cls-1" d="M792.08,127.7L402.7,10l-1.66.51-1.66-.51L10,127.7l5.69,11.02c-9.48,83.49-52.38,616.63,380.65,736.91l5.35,1.37c1.19-.31-1.84.23-.66-.09,1.18.32-.53-.22.66.09l4.04-1.37c433.04-120.28,390.14-653.42,380.65-736.91l5.69-11.02Z"/>
    <g>
      <circle class="cls-8" cx="401.04" cy="241.88" r="114.67"/>
      <polygon class="cls-7" points="373.39 148.06 413.28 168 393.34 210.45 350.73 215.14 335.32 178.88 373.39 148.06"/>
      <line class="cls-8" x1="373.39" y1="148.06" x2="380.48" y2="129.05"/>
      <line class="cls-8" x1="335.32" y1="178.88" x2="300.87" y2="186.13"/>
      <line class="cls-6" x1="327.03" y1="329.47" x2="290.36" y2="271.96"/>
      <polygon class="cls-6" points="290.36 271.96 330.72 264.09 354.36 301.26 346.2 324.83 327.03 329.47 304.51 303.8 290.36 271.96"/>
      <line class="cls-8" x1="287.16" y1="228.41" x2="297.25" y2="270.44"/>
      <line class="cls-8" x1="350.73" y1="215.14" x2="330.72" y2="264.09"/>
      <polyline class="cls-5" points="440.47 318.48 426.88 343.41 373.39 353.2 346.2 324.83"/>
      <polygon class="cls-6" points="465.11 146.76 460.42 165.28 486.71 204.26 510.2 206.68 491 170.77 465.11 146.76"/>
      <line class="cls-8" x1="413.28" y1="168" x2="460.42" y2="165.28"/>
      <polygon class="cls-7" points="426.88 255.03 468.7 249.16 478.55 291.29 440.47 318.48 406.8 296.78 426.88 255.03"/>
      <line class="cls-4" x1="486.71" y1="204.26" x2="468.7" y2="249.16"/>
      <line class="cls-4" x1="393.34" y1="210.45" x2="426.88" y2="255.03"/>
      <line class="cls-4" x1="354.36" y1="301.26" x2="406.8" y2="296.78"/>
      <line class="cls-8" x1="478.55" y1="291.29" x2="501.74" y2="296.78"/>
      <polyline class="cls-5" points="426.88 343.41 432.03 352.32 373.39 353.2"/>
    </g>
    <path class="cls-2" d="M401.04,832.82c1.06.29,2.11.59,3.18.87l.63-.16c388.94-108.03,350.82-588.73,342.3-663.72l5.11-9.9L402.53,54.19l-1.49.45-1.49-.45L49.82,159.9l5.11,9.9c-8.52,74.99-47.05,553.84,341.89,661.87l4.22,1.15Z"/>
    <g>
      <path class="cls-9" d="M157.46,407.09v10.79h-32.31v21.57h27.27v10.84h-27.27v29.69h-13.66v-72.89h45.97Z"/>
      <path class="cls-9" d="M218.2,462.79c.74,0,1.38.29,1.92.86l5.34,5.8c-2.96,3.66-6.6,6.47-10.91,8.42-4.32,1.95-9.5,2.92-15.55,2.92-5.41,0-10.28-.92-14.59-2.77-4.32-1.85-8.01-4.42-11.06-7.71-3.06-3.29-5.4-7.22-7.03-11.8-1.63-4.57-2.44-9.56-2.44-14.97s.91-10.49,2.72-15.05c1.82-4.55,4.37-8.48,7.66-11.77,3.29-3.29,7.23-5.86,11.82-7.69,4.59-1.83,9.65-2.75,15.2-2.75s10.14.87,14.19,2.6c4.05,1.73,7.52,4.02,10.41,6.88l-4.54,6.3c-.27.4-.61.76-1.03,1.06-.42.3-1,.45-1.74.45s-1.56-.3-2.37-.91c-.81-.6-1.83-1.26-3.08-1.97s-2.81-1.36-4.71-1.97c-1.9-.61-4.31-.91-7.23-.91-3.43,0-6.58.6-9.45,1.79-2.87,1.19-5.34,2.9-7.41,5.12-2.07,2.22-3.68,4.91-4.84,8.09-1.16,3.17-1.74,6.75-1.74,10.71s.58,7.75,1.74,10.94c1.16,3.19,2.73,5.88,4.71,8.07s4.32,3.86,7.01,5.01c2.69,1.16,5.58,1.74,8.67,1.74,1.85,0,3.52-.1,5.01-.3s2.87-.52,4.13-.96c1.26-.44,2.45-1,3.58-1.69,1.13-.69,2.24-1.54,3.35-2.54.34-.3.69-.55,1.06-.73.37-.18.77-.28,1.21-.28Z"/>
      <path class="cls-9" d="M255.14,479.98v-72.89h25.15c4.77,0,8.85.45,12.22,1.36,3.38.91,6.15,2.2,8.32,3.88,2.17,1.68,3.76,3.71,4.76,6.1s1.51,5.07,1.51,8.06c0,1.71-.25,3.35-.76,4.92-.5,1.56-1.29,3.02-2.34,4.39-1.06,1.36-2.4,2.6-4.03,3.7-1.63,1.11-3.57,2.05-5.82,2.82,10.01,2.25,15.02,7.66,15.02,16.23,0,3.09-.59,5.95-1.76,8.57-1.18,2.62-2.89,4.88-5.14,6.78-2.25,1.9-5.02,3.39-8.32,4.46-3.29,1.08-7.06,1.61-11.29,1.61h-27.52ZM268.7,438.65h10.84c4.6,0,8.1-.84,10.48-2.52,2.39-1.68,3.58-4.35,3.58-8.01s-1.08-6.5-3.23-8.11c-2.15-1.61-5.51-2.42-10.08-2.42h-11.59v21.07ZM268.7,448.02v21.37h13.76c2.52,0,4.63-.3,6.33-.91,1.7-.6,3.06-1.41,4.08-2.42,1.02-1.01,1.76-2.18,2.22-3.53s.68-2.77.68-4.28-.25-3-.76-4.26c-.5-1.26-1.29-2.33-2.37-3.23s-2.45-1.57-4.13-2.04c-1.68-.47-3.71-.71-6.1-.71h-13.71Z"/>
      <path class="cls-9" d="M336.09,479.98h-13.61v-72.89h13.61v72.89Z"/>
      <path class="cls-9" d="M385.94,470c3.06,0,5.72-.28,7.99-.83,2.27-.55,4.43-1.32,6.48-2.29v-13.26h-9.12c-.87,0-1.56-.24-2.07-.73s-.76-1.08-.76-1.79v-7.66h24.24v29.49c-1.85,1.34-3.77,2.51-5.77,3.5-2,.99-4.13,1.81-6.4,2.45-2.27.64-4.7,1.12-7.28,1.44-2.59.32-5.38.48-8.37.48-5.31,0-10.2-.92-14.67-2.77-4.47-1.85-8.33-4.42-11.59-7.71s-5.8-7.22-7.64-11.8c-1.83-4.57-2.75-9.56-2.75-14.97s.89-10.5,2.67-15.07c1.78-4.57,4.31-8.5,7.59-11.8,3.28-3.29,7.25-5.85,11.92-7.66,4.67-1.81,9.91-2.72,15.73-2.72s11.1.88,15.45,2.65c4.35,1.76,8.04,4.06,11.06,6.88l-3.93,6.15c-.77,1.24-1.8,1.87-3.08,1.87-.81,0-1.63-.27-2.47-.81-1.08-.64-2.18-1.28-3.3-1.91s-2.37-1.19-3.73-1.66c-1.36-.47-2.89-.86-4.59-1.16-1.7-.3-3.65-.45-5.87-.45-3.6,0-6.85.61-9.75,1.82s-5.39,2.94-7.44,5.19c-2.05,2.25-3.63,4.96-4.74,8.11-1.11,3.16-1.66,6.69-1.66,10.59,0,4.2.59,7.94,1.76,11.22,1.18,3.28,2.82,6.04,4.94,8.29,2.12,2.25,4.64,3.97,7.56,5.17,2.92,1.19,6.12,1.79,9.58,1.79Z"/>
      <path class="cls-9" d="M471.33,407.09v10.79h-32.31v21.57h27.27v10.84h-27.27v29.69h-13.66v-72.89h45.97Z"/>
      <path class="cls-9" d="M551.88,443.54c0,5.34-.89,10.29-2.67,14.84-1.78,4.55-4.28,8.49-7.51,11.82-3.23,3.33-7.11,5.92-11.64,7.79-4.54,1.87-9.56,2.8-15.07,2.8s-10.54-.93-15.1-2.8c-4.55-1.86-8.45-4.46-11.69-7.79-3.24-3.33-5.76-7.27-7.54-11.82-1.78-4.55-2.67-9.5-2.67-14.84s.89-10.29,2.67-14.84c1.78-4.55,4.29-8.49,7.54-11.82,3.24-3.33,7.14-5.92,11.69-7.79,4.55-1.87,9.59-2.8,15.1-2.8s10.54.94,15.07,2.82c4.54,1.88,8.42,4.48,11.64,7.79,3.23,3.31,5.73,7.24,7.51,11.79,1.78,4.55,2.67,9.5,2.67,14.84ZM537.97,443.54c0-4-.53-7.59-1.59-10.76-1.06-3.18-2.58-5.87-4.56-8.09-1.98-2.22-4.39-3.91-7.23-5.09-2.84-1.18-6.04-1.76-9.6-1.76s-6.77.59-9.63,1.76c-2.86,1.18-5.29,2.87-7.28,5.09-2,2.22-3.54,4.91-4.61,8.09-1.08,3.17-1.61,6.76-1.61,10.76s.54,7.59,1.61,10.76c1.08,3.17,2.61,5.86,4.61,8.06,2,2.2,4.43,3.89,7.28,5.07,2.86,1.18,6.06,1.76,9.63,1.76s6.76-.59,9.6-1.76c2.84-1.18,5.25-2.86,7.23-5.07,1.98-2.2,3.5-4.89,4.56-8.06,1.06-3.18,1.59-6.76,1.59-10.76Z"/>
      <path class="cls-9" d="M632.48,443.54c0,5.34-.89,10.29-2.67,14.84-1.78,4.55-4.28,8.49-7.51,11.82-3.23,3.33-7.11,5.92-11.64,7.79-4.54,1.87-9.56,2.8-15.07,2.8s-10.54-.93-15.1-2.8c-4.55-1.86-8.45-4.46-11.69-7.79-3.24-3.33-5.76-7.27-7.54-11.82s-2.67-9.5-2.67-14.84.89-10.29,2.67-14.84c1.78-4.55,4.29-8.49,7.54-11.82,3.24-3.33,7.14-5.92,11.69-7.79,4.55-1.87,9.59-2.8,15.1-2.8s10.54.94,15.07,2.82c4.54,1.88,8.42,4.48,11.64,7.79,3.23,3.31,5.73,7.24,7.51,11.79,1.78,4.55,2.67,9.5,2.67,14.84ZM618.56,443.54c0-4-.53-7.59-1.59-10.76-1.06-3.18-2.58-5.87-4.56-8.09-1.98-2.22-4.39-3.91-7.23-5.09-2.84-1.18-6.04-1.76-9.6-1.76s-6.77.59-9.63,1.76c-2.86,1.18-5.29,2.87-7.28,5.09-2,2.22-3.54,4.91-4.61,8.09-1.08,3.17-1.61,6.76-1.61,10.76s.54,7.59,1.61,10.76c1.08,3.17,2.61,5.86,4.61,8.06,2,2.2,4.43,3.89,7.28,5.07,2.86,1.18,6.06,1.76,9.63,1.76s6.76-.59,9.6-1.76c2.84-1.18,5.25-2.86,7.23-5.07,1.98-2.2,3.5-4.89,4.56-8.06,1.06-3.18,1.59-6.76,1.59-10.76Z"/>
      <path class="cls-9" d="M690.59,407.09v11.14h-21.93v61.75h-13.56v-61.75h-22.03v-11.14h57.51Z"/>
    </g>
    <g>
      <path class="cls-9" d="M186.76,551.11v4.98h-21.67v15.78h18.52v4.98h-18.52v19.41h-6.14v-45.14h27.82Z"/>
      <path class="cls-9" d="M236.53,573.69c0,3.38-.54,6.49-1.61,9.31-1.07,2.83-2.58,5.26-4.54,7.29-1.95,2.04-4.3,3.62-7.04,4.74-2.74,1.12-5.77,1.69-9.09,1.69s-6.34-.56-9.07-1.69c-2.73-1.12-5.07-2.7-7.03-4.74-1.95-2.04-3.47-4.47-4.54-7.29-1.07-2.82-1.61-5.93-1.61-9.31s.54-6.48,1.61-9.31c1.07-2.83,2.58-5.26,4.54-7.31s4.29-3.64,7.03-4.77c2.73-1.13,5.75-1.7,9.07-1.7s6.35.57,9.09,1.7c2.74,1.13,5.09,2.72,7.04,4.77s3.47,4.48,4.54,7.31c1.07,2.82,1.61,5.93,1.61,9.31ZM230.26,573.69c0-2.77-.38-5.26-1.13-7.47s-1.83-4.07-3.21-5.59c-1.39-1.52-3.07-2.69-5.04-3.51-1.98-.82-4.18-1.23-6.62-1.23s-4.61.41-6.58,1.23c-1.97.82-3.66,1.99-5.06,3.51-1.4,1.52-2.47,3.39-3.23,5.59-.76,2.21-1.13,4.69-1.13,7.47s.38,5.26,1.13,7.45c.76,2.19,1.83,4.05,3.23,5.58,1.4,1.52,3.08,2.69,5.06,3.5s4.17,1.21,6.58,1.21,4.64-.4,6.62-1.21c1.97-.81,3.65-1.97,5.04-3.5,1.39-1.52,2.46-3.38,3.21-5.58s1.13-4.68,1.13-7.45Z"/>
      <path class="cls-9" d="M286.81,573.69c0,3.38-.54,6.49-1.61,9.31-1.07,2.83-2.58,5.26-4.54,7.29-1.95,2.04-4.3,3.62-7.04,4.74-2.74,1.12-5.77,1.69-9.09,1.69s-6.34-.56-9.07-1.69c-2.73-1.12-5.07-2.7-7.03-4.74-1.95-2.04-3.47-4.47-4.54-7.29-1.07-2.82-1.61-5.93-1.61-9.31s.54-6.48,1.61-9.31c1.07-2.83,2.58-5.26,4.54-7.31s4.29-3.64,7.03-4.77c2.73-1.13,5.75-1.7,9.07-1.7s6.35.57,9.09,1.7c2.74,1.13,5.09,2.72,7.04,4.77s3.47,4.48,4.54,7.31c1.07,2.82,1.61,5.93,1.61,9.31ZM280.54,573.69c0-2.77-.38-5.26-1.13-7.47s-1.83-4.07-3.21-5.59c-1.39-1.52-3.07-2.69-5.04-3.51-1.98-.82-4.18-1.23-6.62-1.23s-4.61.41-6.58,1.23c-1.97.82-3.66,1.99-5.06,3.51-1.4,1.52-2.47,3.39-3.23,5.59-.76,2.21-1.13,4.69-1.13,7.47s.38,5.26,1.13,7.45c.76,2.19,1.83,4.05,3.23,5.58,1.4,1.52,3.08,2.69,5.06,3.5s4.17,1.21,6.58,1.21,4.64-.4,6.62-1.21c1.97-.81,3.65-1.97,5.04-3.5,1.39-1.52,2.46-3.38,3.21-5.58s1.13-4.68,1.13-7.45Z"/>
      <path class="cls-9" d="M322.82,551.11v5.14h-14.59v40.01h-6.11v-40.01h-14.65v-5.14h35.35Z"/>
      <path class="cls-9" d="M329.25,596.25v-45.14h14.4c2.77,0,5.16.27,7.17.82,2,.55,3.65,1.32,4.95,2.33,1.29,1.01,2.25,2.24,2.87,3.7.62,1.46.93,3.1.93,4.93,0,1.11-.17,2.18-.52,3.21-.35,1.03-.87,1.98-1.58,2.87-.7.88-1.59,1.67-2.65,2.36-1.06.69-2.3,1.26-3.73,1.7,3.3.65,5.79,1.84,7.47,3.56,1.68,1.72,2.52,3.99,2.52,6.8,0,1.91-.35,3.65-1.05,5.23-.7,1.58-1.73,2.93-3.09,4.06-1.35,1.13-3.01,2.01-4.98,2.63s-4.2.93-6.73.93h-15.97ZM335.36,571.33h8.06c1.72,0,3.21-.19,4.47-.57,1.26-.38,2.3-.9,3.13-1.58.83-.67,1.44-1.49,1.84-2.44.4-.96.6-2,.6-3.14,0-2.65-.8-4.59-2.39-5.83-1.6-1.24-4.07-1.86-7.43-1.86h-8.29v15.4ZM335.36,575.68v15.72h9.77c1.74,0,3.24-.2,4.49-.6,1.25-.4,2.28-.96,3.09-1.68.81-.72,1.4-1.59,1.78-2.58.38-1,.57-2.09.57-3.29,0-2.33-.82-4.17-2.47-5.53-1.65-1.35-4.14-2.03-7.48-2.03h-9.73Z"/>
      <path class="cls-9" d="M407.15,596.25h-4.73c-.55,0-.99-.14-1.32-.41-.34-.27-.59-.62-.76-1.04l-4.22-10.9h-20.26l-4.22,10.9c-.15.38-.4.71-.76,1.01s-.8.44-1.32.44h-4.73l18.05-45.14h6.21l18.05,45.14ZM377.57,579.49h16.85l-7.09-18.37c-.46-1.13-.91-2.55-1.35-4.25-.23.86-.46,1.65-.68,2.38s-.44,1.36-.65,1.91l-7.09,18.33Z"/>
      <path class="cls-9" d="M418.97,591.12h19.53v5.14h-25.64v-45.14h6.11v40.01Z"/>
      <path class="cls-9" d="M451.35,591.12h19.53v5.14h-25.64v-45.14h6.11v40.01Z"/>
      <path class="cls-9" d="M521.6,586.92c.34,0,.64.14.91.41l2.39,2.62c-1.85,2.14-4.09,3.81-6.73,5.01-2.64,1.2-5.81,1.8-9.53,1.8-3.26,0-6.21-.56-8.85-1.69-2.65-1.12-4.9-2.7-6.77-4.73s-3.32-4.46-4.35-7.29-1.54-5.95-1.54-9.36.55-6.52,1.65-9.36,2.65-5.27,4.65-7.31c1.99-2.04,4.38-3.62,7.17-4.74,2.78-1.12,5.85-1.68,9.21-1.68s6.18.51,8.58,1.54,4.54,2.43,6.41,4.19l-1.98,2.8c-.15.21-.32.38-.5.52-.19.14-.46.2-.82.2-.27,0-.56-.1-.87-.3-.31-.2-.67-.45-1.09-.74-.42-.29-.91-.61-1.48-.95s-1.24-.65-2.02-.95c-.78-.29-1.68-.54-2.71-.74s-2.22-.3-3.56-.3c-2.41,0-4.63.42-6.63,1.25-2.01.83-3.73,2.01-5.18,3.54-1.45,1.53-2.58,3.4-3.39,5.61s-1.21,4.67-1.21,7.4.4,5.32,1.21,7.53,1.91,4.07,3.31,5.59,3.05,2.68,4.96,3.48c1.91.8,3.97,1.2,6.18,1.2,1.34,0,2.55-.08,3.62-.24s2.06-.4,2.98-.74c.91-.34,1.76-.76,2.55-1.28s1.58-1.13,2.38-1.84c.36-.32.7-.47,1.04-.47Z"/>
      <path class="cls-9" d="M539.06,591.12h19.53v5.14h-25.64v-45.14h6.11v40.01Z"/>
      <path class="cls-9" d="M582.88,591.4c1.87,0,3.54-.32,5.01-.95,1.47-.63,2.71-1.51,3.73-2.65,1.02-1.13,1.8-2.49,2.33-4.06s.8-3.31.8-5.2v-27.44h6.08v27.44c0,2.6-.42,5.02-1.25,7.25s-2.02,4.15-3.56,5.78c-1.54,1.63-3.43,2.9-5.66,3.83s-4.73,1.39-7.5,1.39-5.27-.46-7.5-1.39-4.12-2.2-5.67-3.83c-1.55-1.63-2.75-3.55-3.58-5.78s-1.24-4.64-1.24-7.25v-27.44h6.08v27.41c0,1.89.27,3.62.8,5.2.54,1.58,1.31,2.93,2.33,4.06,1.02,1.13,2.27,2.02,3.75,2.66,1.48.64,3.16.96,5.03.96Z"/>
      <path class="cls-9" d="M611.32,596.25v-45.14h14.4c2.77,0,5.16.27,7.17.82,2,.55,3.65,1.32,4.95,2.33,1.29,1.01,2.25,2.24,2.87,3.7.62,1.46.93,3.1.93,4.93,0,1.11-.17,2.18-.52,3.21-.35,1.03-.87,1.98-1.58,2.87-.7.88-1.59,1.67-2.65,2.36-1.06.69-2.3,1.26-3.73,1.7,3.3.65,5.79,1.84,7.47,3.56,1.68,1.72,2.52,3.99,2.52,6.8,0,1.91-.35,3.65-1.05,5.23-.7,1.58-1.73,2.93-3.09,4.06-1.35,1.13-3.01,2.01-4.98,2.63s-4.2.93-6.73.93h-15.97ZM617.44,571.33h8.06c1.72,0,3.21-.19,4.47-.57,1.26-.38,2.3-.9,3.13-1.58.83-.67,1.44-1.49,1.84-2.44.4-.96.6-2,.6-3.14,0-2.65-.8-4.59-2.39-5.83-1.6-1.24-4.07-1.86-7.43-1.86h-8.29v15.4ZM617.44,575.68v15.72h9.77c1.74,0,3.24-.2,4.49-.6,1.25-.4,2.28-.96,3.09-1.68.81-.72,1.4-1.59,1.78-2.58.38-1,.57-2.09.57-3.29,0-2.33-.82-4.17-2.47-5.53-1.65-1.35-4.14-2.03-7.48-2.03h-9.73Z"/>
      <path class="cls-9" d="M345.88,626.21c1.91,0,3.7.28,5.36.85,1.66.57,3.09,1.39,4.3,2.47,1.21,1.08,2.16,2.4,2.85,3.95s1.04,3.32,1.04,5.29c0,1.68-.25,3.23-.76,4.66-.5,1.43-1.19,2.8-2.05,4.11-.86,1.31-1.85,2.58-2.98,3.81-1.12,1.23-2.32,2.48-3.58,3.76l-11.88,12.16c.84-.23,1.69-.41,2.55-.55.86-.14,1.69-.2,2.49-.2h15.12c.61,0,1.09.18,1.45.54.36.36.54.82.54,1.39v3.4h-30.12v-1.92c0-.4.08-.81.24-1.23.16-.42.41-.81.77-1.17l14.46-14.52c1.2-1.22,2.29-2.39,3.28-3.51s1.83-2.25,2.54-3.39c.7-1.13,1.24-2.28,1.62-3.45.38-1.17.57-2.41.57-3.73s-.21-2.48-.63-3.48c-.42-1-1-1.82-1.73-2.47-.73-.65-1.6-1.14-2.58-1.47-.99-.32-2.05-.49-3.18-.49s-2.19.17-3.15.5c-.97.34-1.82.8-2.57,1.4-.75.6-1.38,1.31-1.89,2.13-.51.82-.88,1.72-1.09,2.71-.17.61-.42,1.05-.76,1.32-.34.27-.78.41-1.32.41-.1,0-.22,0-.33-.02-.12,0-.25-.03-.39-.05l-2.93-.5c.29-2.06.86-3.88,1.7-5.47.84-1.59,1.91-2.91,3.2-3.98,1.29-1.07,2.77-1.89,4.44-2.44s3.47-.83,5.4-.83Z"/>
      <path class="cls-9" d="M398.14,649.3c0,3.95-.43,7.37-1.28,10.25-.85,2.89-2.01,5.28-3.48,7.17-1.47,1.89-3.21,3.3-5.21,4.22-2.01.92-4.15,1.39-6.44,1.39s-4.46-.46-6.44-1.39c-1.98-.92-3.71-2.33-5.18-4.22-1.47-1.89-2.63-4.28-3.47-7.17-.84-2.89-1.26-6.31-1.26-10.25s.42-7.37,1.26-10.27c.84-2.9,1.99-5.3,3.47-7.2,1.47-1.9,3.2-3.31,5.18-4.24s4.13-1.39,6.44-1.39,4.44.46,6.44,1.39c2,.92,3.74,2.34,5.21,4.24,1.47,1.9,2.63,4.3,3.48,7.2s1.28,6.32,1.28,10.27ZM392.32,649.3c0-3.44-.29-6.34-.87-8.68-.58-2.34-1.35-4.23-2.33-5.66-.98-1.43-2.11-2.45-3.39-3.07-1.28-.62-2.62-.93-4-.93s-2.72.31-4,.93c-1.28.62-2.4,1.64-3.37,3.07-.97,1.43-1.74,3.31-2.32,5.66-.58,2.34-.87,5.24-.87,8.68s.29,6.33.87,8.66c.58,2.33,1.35,4.21,2.32,5.64s2.09,2.45,3.37,3.07,2.62.93,4,.93,2.72-.31,4-.93c1.28-.62,2.41-1.64,3.39-3.07.98-1.43,1.75-3.31,2.33-5.64.58-2.33.87-5.22.87-8.66Z"/>
      <path class="cls-9" d="M418.97,626.21c1.91,0,3.7.28,5.36.85,1.66.57,3.09,1.39,4.3,2.47,1.21,1.08,2.16,2.4,2.85,3.95s1.04,3.32,1.04,5.29c0,1.68-.25,3.23-.76,4.66-.5,1.43-1.19,2.8-2.05,4.11-.86,1.31-1.85,2.58-2.98,3.81-1.12,1.23-2.32,2.48-3.58,3.76l-11.88,12.16c.84-.23,1.69-.41,2.55-.55.86-.14,1.69-.2,2.49-.2h15.12c.61,0,1.09.18,1.45.54.36.36.54.82.54,1.39v3.4h-30.12v-1.92c0-.4.08-.81.24-1.23.16-.42.41-.81.77-1.17l14.46-14.52c1.2-1.22,2.29-2.39,3.28-3.51s1.83-2.25,2.54-3.39c.7-1.13,1.24-2.28,1.62-3.45.38-1.17.57-2.41.57-3.73s-.21-2.48-.63-3.48c-.42-1-1-1.82-1.73-2.47-.73-.65-1.6-1.14-2.58-1.47-.99-.32-2.05-.49-3.18-.49s-2.19.17-3.15.5c-.97.34-1.82.8-2.57,1.4-.75.6-1.38,1.31-1.89,2.13-.51.82-.88,1.72-1.09,2.71-.17.61-.42,1.05-.76,1.32-.34.27-.78.41-1.32.41-.1,0-.22,0-.33-.02-.12,0-.25-.03-.39-.05l-2.93-.5c.29-2.06.86-3.88,1.7-5.47.84-1.59,1.91-2.91,3.2-3.98,1.29-1.07,2.77-1.89,4.44-2.44s3.47-.83,5.4-.83Z"/>
      <path class="cls-9" d="M465.02,655.57h6.84v3.21c0,.34-.1.62-.3.85-.2.23-.51.35-.93.35h-5.61v11.88h-4.95v-11.88h-20c-.42,0-.78-.12-1.09-.36-.3-.24-.5-.54-.58-.9l-.57-2.87,21.96-29.14h5.23v28.86ZM460.08,636.95c0-.55.01-1.13.05-1.76s.1-1.28.2-1.95l-16.41,22.34h16.16v-18.62Z"/>
    </g>
    <line class="cls-3" x1="111.49" y1="515.07" x2="690.59" y2="515.07"/>
  </g>
</svg>